<svg width="598.2400024414062px" height="124.439990234375px" xmlns="http://www.w3.org/2000/svg" viewBox="-49.1200012207031 12.780004882812499 598.2400024414062 124.439990234375" style="background: none;" preserveAspectRatio="xMidYMid"><defs><linearGradient id="editing-gradient-gradient" x1="0" x2="1" y1="0.5" y2="0.5" gradientUnits="objectBoundingBox"><stop offset="0" stop-color="#f0f"></stop><stop offset="1" stop-color="#0ff"></stop></linearGradient></defs><g><g transform="translate(38.74000656604767, 104.47000122070312)"><path d="M14.34 0L0.38 0L8.51-42.24L22.59-42.24L14.34 0ZM70.08 1.28L70.08 1.28L70.08 1.28Q62.34 1.28 62.34-4.74L62.34-4.74L62.34-4.74Q62.34-7.36 63.46-12.45L63.46-12.45L63.46-12.45Q64.58-17.54 64.96-19.58L64.96-19.58L64.96-19.58Q65.86-24.26 65.86-25.73L65.86-25.73L65.86-25.73Q65.86-28.99 63.42-28.99L63.42-28.99L63.42-28.99Q61.82-28.99 60.29-26.78L60.29-26.78L60.29-26.78Q58.75-24.58 58.05-20.16L58.05-20.16L54.08 0L41.60 1.28L45.06-16.13L45.06-16.13Q45.63-19.01 46.14-22.27L46.14-22.27L46.14-22.27Q46.66-25.54 46.66-26.05L46.66-26.05L46.66-26.05Q46.66-28.99 44.48-28.99L44.48-28.99L44.48-28.99Q43.01-28.99 41.41-26.82L41.41-26.82L41.41-26.82Q39.81-24.64 38.91-20.16L38.91-20.16L35.01 0L22.40 1.28L29.12-32.64L39.55-33.92L38.46-27.46L38.46-27.46Q40.13-30.91 43.20-32.42L43.20-32.42L43.20-32.42Q46.27-33.92 51.07-33.92L51.07-33.92L51.07-33.92Q53.82-33.92 55.62-32.58L55.62-32.58L55.62-32.58Q57.41-31.23 57.98-29.06L57.98-29.06L57.98-29.06Q59.07-31.30 61.86-32.61L61.86-32.61L61.86-32.61Q64.64-33.92 68.06-33.92L68.06-33.92L68.06-33.92Q71.49-33.92 73.18-33.18L73.18-33.18L73.18-33.18Q74.88-32.45 75.90-31.23L75.90-31.23L75.90-31.23Q77.63-28.99 77.63-24.90L77.63-24.90L77.63-24.90Q77.63-20.86 75.90-12.48L75.90-12.48L75.90-12.48Q75.01-8.38 75.01-6.88L75.01-6.88L75.01-6.88Q75.01-5.38 75.87-4.48L75.87-4.48L75.87-4.48Q76.74-3.58 78.02-3.46L78.02-3.46L78.02-3.46Q77.38-1.28 75.17 0L75.17 0L75.17 0Q72.96 1.28 70.08 1.28ZM85.73-1.92L85.73-1.92L85.73-1.92Q84.22-3.58 83.55-6.21L83.55-6.21L83.55-6.21Q82.88-8.83 82.88-13.12L82.88-13.12L82.88-13.12Q82.88-17.41 84.35-21.31L84.35-21.31L84.35-21.31Q85.82-25.22 88.51-28.03L88.51-28.03L88.51-28.03Q94.02-33.92 103.10-33.92L103.10-33.92L103.10-33.92Q106.37-33.92 108.74-32.83L108.74-32.83L119.68-33.92L114.94-8.96L114.94-8.96Q114.75-8.19 114.75-6.78L114.75-6.78L114.75-6.78Q114.75-5.38 115.62-4.48L115.62-4.48L115.62-4.48Q116.48-3.58 117.76-3.46L117.76-3.46L117.76-3.46Q117.12-1.28 114.78 0L114.78 0L114.78 0Q112.45 1.28 109.82 1.28L109.82 1.28L109.82 1.28Q107.20 1.28 105.44 0.29L105.44 0.29L105.44 0.29Q103.68-0.70 103.17-2.37L103.17-2.37L103.17-2.37Q102.14-0.77 99.97 0.26L99.97 0.26L99.97 0.26Q97.79 1.28 94.88 1.28L94.88 1.28L94.88 1.28Q91.97 1.28 89.60 0.51L89.60 0.51L89.60 0.51Q87.23-0.26 85.73-1.92ZM99.23-27.90L99.23-27.90L99.23-27.90Q98.50-26.75 97.86-24.80L97.86-24.80L97.86-24.80Q97.22-22.85 96.16-17.63L96.16-17.63L96.16-17.63Q95.10-12.42 95.10-8.70L95.10-8.70L95.10-8.70Q95.10-4.99 95.68-3.90L95.68-3.90L95.68-3.90Q96.26-2.82 97.28-2.82L97.28-2.82L97.28-2.82Q99.33-2.82 100.83-4.77L100.83-4.77L100.83-4.77Q102.34-6.72 102.91-10.18L102.91-10.18L106.30-28.93L106.30-28.93Q104.96-30.08 103.39-30.08L103.39-30.08L103.39-30.08Q101.82-30.08 100.90-29.57L100.90-29.57L100.90-29.57Q99.97-29.06 99.23-27.90ZM127.42-26.75L127.42-26.75L127.42-26.75Q129.60-29.82 132.90-31.87L132.90-31.87L132.90-31.87Q136.19-33.92 140.22-33.92L140.22-33.92L140.22-33.92Q144.26-33.92 146.18-32.64L146.18-32.64L158.72-33.92L154.37-9.34L154.37-9.34Q152.13 3.20 147.39 8.13L147.39 8.13L147.39 8.13Q142.85 12.80 134.02 12.80L134.02 12.80L134.02 12.80Q127.30 12.80 123.46 10.69L123.46 10.69L123.46 10.69Q119.62 8.58 119.62 5.06L119.62 5.06L119.62 5.06Q119.62 2.43 121.60 0.93L121.60 0.93L121.60 0.93Q123.58-0.58 126.66-0.58L126.66-0.58L126.66-0.58Q129.34-0.58 131.39 0.64L131.39 0.64L131.39 0.64Q132.61 1.28 133.18 2.18L133.18 2.18L133.18 2.18Q131.71 3.46 131.71 5.57L131.71 5.57L131.71 5.57Q131.71 8.32 134.27 8.32L134.27 8.32L134.27 8.32Q138.56 8.32 140.99-1.79L140.99-1.79L140.99-1.79Q141.70-4.54 142.27-7.30L142.27-7.30L142.27-7.30Q139.39-3.78 132.86-3.78L132.86-3.78L132.86-3.78Q128.32-3.78 125.70-5.95L125.70-5.95L125.70-5.95Q123.07-8.13 123.07-13.25L123.07-13.25L123.07-13.25Q123.07-16.45 124.16-20.06L124.16-20.06L124.16-20.06Q125.25-23.68 127.42-26.75ZM135.74-13.06L135.74-13.06L135.74-13.06Q135.74-8.70 137.98-8.70L137.98-8.70L137.98-8.70Q139.52-8.70 140.99-10.37L140.99-10.37L140.99-10.37Q142.14-11.71 142.59-13.70L142.59-13.70L145.86-30.14L145.86-30.14Q145.54-30.21 145.22-30.34L145.22-30.34L145.22-30.34Q144.58-30.59 143.74-30.59L143.74-30.59L143.74-30.59Q139.84-30.59 137.54-24.19L137.54-24.19L137.54-24.19Q135.74-19.20 135.74-13.06ZM187.14-10.82L187.14-10.82L187.14-10.82Q188.74-9.73 188.74-7.33L188.74-7.33L188.74-7.33Q188.74-4.93 187.52-3.39L187.52-3.39L187.52-3.39Q186.30-1.86 184.32-0.83L184.32-0.83L184.32-0.83Q180.22 1.28 175.81 1.28L175.81 1.28L175.81 1.28Q171.39 1.28 168.80 0.32L168.80 0.32L168.80 0.32Q166.21-0.64 164.48-2.43L164.48-2.43L164.48-2.43Q161.09-5.82 161.09-12.03L161.09-12.03L161.09-12.03Q161.09-21.70 166.34-27.58L166.34-27.58L166.34-27.58Q171.97-33.92 181.76-33.92L181.76-33.92L181.76-33.92Q187.84-33.92 190.85-31.36L190.85-31.36L190.85-31.36Q193.09-29.44 193.09-26.30L193.09-26.30L193.09-26.30Q193.09-15.04 173.63-15.04L173.63-15.04L173.63-15.04Q173.38-13.38 173.38-11.97L173.38-11.97L173.38-11.97Q173.38-9.02 174.69-7.90L174.69-7.90L174.69-7.90Q176-6.78 178.43-6.78L178.43-6.78L178.43-6.78Q180.86-6.78 183.46-7.90L183.46-7.90L183.46-7.90Q186.05-9.02 187.14-10.82ZM174.08-17.79L174.08-17.79L174.08-17.79Q178.62-17.79 181.25-20.61L181.25-20.61L181.25-20.61Q183.87-23.30 183.87-27.58L183.87-27.58L183.87-27.58Q183.87-29.06 183.33-29.86L183.33-29.86L183.33-29.86Q182.78-30.66 181.70-30.66L181.70-30.66L181.70-30.66Q180.61-30.66 179.68-30.24L179.68-30.24L179.68-30.24Q178.75-29.82 177.79-28.42L177.79-28.42L177.79-28.42Q175.42-25.22 174.08-17.79ZM234.37-20.61L247.30-21.76L247.30-21.76Q242.69-11.65 242.69 0.06L242.69 0.06L242.69 0.06Q240.96 1.28 238.43 1.28L238.43 1.28L238.43 1.28Q235.90 1.28 234.30 0.10L234.30 0.10L234.30 0.10Q232.70-1.09 232.38-2.30L232.38-2.30L232.38-2.30Q230.78-0.64 228.19 0.32L228.19 0.32L228.19 0.32Q225.60 1.28 222.85 1.28L222.85 1.28L222.85 1.28Q220.10 1.28 217.70 0.38L217.70 0.38L217.70 0.38Q215.30-0.51 213.44-2.50L213.44-2.50L213.44-2.50Q209.34-6.85 209.34-15.10L209.34-15.10L209.34-15.10Q209.34-27.90 216.19-35.58L216.19-35.58L216.19-35.58Q223.23-43.52 235.71-43.52L235.71-43.52L235.71-43.52Q244.35-43.52 247.42-39.04L247.42-39.04L247.42-39.04Q248.38-37.63 248.38-35.94L248.38-35.94L248.38-35.94Q248.38-34.24 247.65-32.80L247.65-32.80L247.65-32.80Q246.91-31.36 245.76-30.21L245.76-30.21L245.76-30.21Q243.01-27.65 239.62-27.65L239.62-27.65L239.62-27.65Q238.27-27.65 236.99-28.10L236.99-28.10L236.99-28.10Q237.25-30.02 237.25-32.26L237.25-32.26L237.25-32.26Q237.25-34.50 237.09-35.52L237.09-35.52L237.09-35.52Q236.93-36.54 236.54-37.38L236.54-37.38L236.54-37.38Q235.71-39.10 233.89-39.10L233.89-39.10L233.89-39.10Q232.06-39.10 230.05-37.15L230.05-37.15L230.05-37.15Q228.03-35.20 226.43-32L226.43-32L226.43-32Q222.91-24.83 222.91-16.19L222.91-16.19L222.91-16.19Q222.91-12.22 224.45-9.41L224.45-9.41L224.45-9.41Q226.11-6.34 229.06-6.34L229.06-6.34L229.06-6.34Q230.08-6.34 231.01-6.85L231.01-6.85L231.01-6.85Q231.94-7.36 232.32-7.74L232.32-7.74L234.37-20.61ZM253.22-1.92L253.22-1.92L253.22-1.92Q251.71-3.58 251.04-6.21L251.04-6.21L251.04-6.21Q250.37-8.83 250.37-13.12L250.37-13.12L250.37-13.12Q250.37-17.41 251.84-21.31L251.84-21.31L251.84-21.31Q253.31-25.22 256-28.03L256-28.03L256-28.03Q261.50-33.92 270.59-33.92L270.59-33.92L270.59-33.92Q273.86-33.92 276.22-32.83L276.22-32.83L287.17-33.92L282.43-8.96L282.43-8.96Q282.24-8.19 282.24-6.78L282.24-6.78L282.24-6.78Q282.24-5.38 283.10-4.48L283.10-4.48L283.10-4.48Q283.97-3.58 285.25-3.46L285.25-3.46L285.25-3.46Q284.61-1.28 282.27 0L282.27 0L282.27 0Q279.94 1.28 277.31 1.28L277.31 1.28L277.31 1.28Q274.69 1.28 272.93 0.29L272.93 0.29L272.93 0.29Q271.17-0.70 270.66-2.37L270.66-2.37L270.66-2.37Q269.63-0.77 267.46 0.26L267.46 0.26L267.46 0.26Q265.28 1.28 262.37 1.28L262.37 1.28L262.37 1.28Q259.46 1.28 257.09 0.51L257.09 0.51L257.09 0.51Q254.72-0.26 253.22-1.92ZM266.72-27.90L266.72-27.90L266.72-27.90Q265.98-26.75 265.34-24.80L265.34-24.80L265.34-24.80Q264.70-22.85 263.65-17.63L263.65-17.63L263.65-17.63Q262.59-12.42 262.59-8.70L262.59-8.70L262.59-8.70Q262.59-4.99 263.17-3.90L263.17-3.90L263.17-3.90Q263.74-2.82 264.77-2.82L264.77-2.82L264.77-2.82Q266.82-2.82 268.32-4.77L268.32-4.77L268.32-4.77Q269.82-6.72 270.40-10.18L270.40-10.18L273.79-28.93L273.79-28.93Q272.45-30.08 270.88-30.08L270.88-30.08L270.88-30.08Q269.31-30.08 268.38-29.57L268.38-29.57L268.38-29.57Q267.46-29.06 266.72-27.90ZM305.92-3.52L305.92-3.52L305.92-3.52Q303.94 1.28 297.60 1.28L297.60 1.28L297.60 1.28Q294.40 1.28 292.35-0.96L292.35-0.96L292.35-0.96Q290.69-2.82 290.69-4.93L290.69-4.93L290.69-4.93Q290.69-9.73 292.93-20.22L292.93-20.22L297.60-44.80L310.59-46.08L304.38-13.70L304.38-13.70Q303.30-8.96 303.30-7.30L303.30-7.30L303.30-7.30Q303.30-3.65 305.92-3.52ZM314.14-1.92L314.14-1.92L314.14-1.92Q312.64-3.58 311.97-6.21L311.97-6.21L311.97-6.21Q311.30-8.83 311.30-13.12L311.30-13.12L311.30-13.12Q311.30-17.41 312.77-21.31L312.77-21.31L312.77-21.31Q314.24-25.22 316.93-28.03L316.93-28.03L316.93-28.03Q322.43-33.92 331.52-33.92L331.52-33.92L331.52-33.92Q334.78-33.92 337.15-32.83L337.15-32.83L348.10-33.92L343.36-8.96L343.36-8.96Q343.17-8.19 343.17-6.78L343.17-6.78L343.17-6.78Q343.17-5.38 344.03-4.48L344.03-4.48L344.03-4.48Q344.90-3.58 346.18-3.46L346.18-3.46L346.18-3.46Q345.54-1.28 343.20 0L343.20 0L343.20 0Q340.86 1.28 338.24 1.28L338.24 1.28L338.24 1.28Q335.62 1.28 333.86 0.29L333.86 0.29L333.86 0.29Q332.10-0.70 331.58-2.37L331.58-2.37L331.58-2.37Q330.56-0.77 328.38 0.26L328.38 0.26L328.38 0.26Q326.21 1.28 323.30 1.28L323.30 1.28L323.30 1.28Q320.38 1.28 318.02 0.51L318.02 0.51L318.02 0.51Q315.65-0.26 314.14-1.92ZM327.65-27.90L327.65-27.90L327.65-27.90Q326.91-26.75 326.27-24.80L326.27-24.80L326.27-24.80Q325.63-22.85 324.58-17.63L324.58-17.63L324.58-17.63Q323.52-12.42 323.52-8.70L323.52-8.70L323.52-8.70Q323.52-4.99 324.10-3.90L324.10-3.90L324.10-3.90Q324.67-2.82 325.70-2.82L325.70-2.82L325.70-2.82Q327.74-2.82 329.25-4.77L329.25-4.77L329.25-4.77Q330.75-6.72 331.33-10.18L331.33-10.18L334.72-28.93L334.72-28.93Q333.38-30.08 331.81-30.08L331.81-30.08L331.81-30.08Q330.24-30.08 329.31-29.57L329.31-29.57L329.31-29.57Q328.38-29.06 327.65-27.90ZM371.58-17.98L371.58-17.98L371.58-17.98Q373.89-22.08 373.89-26.24L373.89-26.24L373.89-26.24Q373.89-28.99 371.90-28.99L371.90-28.99L371.90-28.99Q370.37-28.99 368.77-26.37L368.77-26.37L368.77-26.37Q367.10-23.74 366.59-20.35L366.59-20.35L363.26 0L350.02 1.28L356.54-32.64L367.10-33.92L365.95-27.46L365.95-27.46Q369.09-33.92 376.13-33.92L376.13-33.92L376.13-33.92Q379.84-33.92 381.86-32L381.86-32L381.86-32Q383.87-30.08 383.87-26.14L383.87-26.14L383.87-26.14Q383.87-22.21 381.28-19.71L381.28-19.71L381.28-19.71Q378.69-17.22 374.27-17.22L374.27-17.22L374.27-17.22Q372.35-17.22 371.58-17.98ZM405.25-7.23L405.25-7.23L405.25-7.23Q401.92-3.78 395.84-3.78L395.84-3.78L395.84-3.78Q388.22-3.78 386.62-9.34L386.62-9.34L386.62-9.34Q386.11-11.01 386.11-12.86L386.11-12.86L386.11-12.86Q386.11-14.72 386.50-16.64L386.50-16.64L389.50-32.64L402.50-33.92L398.98-15.30L398.98-15.30Q398.85-14.46 398.66-13.57L398.66-13.57L398.66-13.57Q398.46-12.67 398.46-11.74L398.46-11.74L398.46-11.74Q398.46-10.82 398.78-10.21L398.78-10.21L398.78-10.21Q399.10-9.60 399.55-9.22L399.55-9.22L399.55-9.22Q400.32-8.70 401.70-8.70L401.70-8.70L401.70-8.70Q403.07-8.70 404.26-10.37L404.26-10.37L404.26-10.37Q405.44-12.03 406.02-14.91L406.02-14.91L409.54-32.64L422.14-33.92L417.34-8.77L417.34-8.77Q414.98 3.52 410.11 8.38L410.11 8.38L410.11 8.38Q407.62 10.88 404.38 11.87L404.38 11.87L404.38 11.87Q401.15 12.86 396.99 12.86L396.99 12.86L396.99 12.86Q390.27 12.86 386.43 10.75L386.43 10.75L386.43 10.75Q382.59 8.64 382.59 5.12L382.59 5.12L382.59 5.12Q382.59 2.50 384.58 0.99L384.58 0.99L384.58 0.99Q386.56-0.51 389.63-0.51L389.63-0.51L389.63-0.51Q392.32-0.51 394.37 0.64L394.37 0.64L394.37 0.64Q395.58 1.34 396.16 2.24L396.16 2.24L396.16 2.24Q394.69 3.52 394.69 5.63L394.69 5.63L394.69 5.63Q394.69 8.45 397.25 8.45L397.25 8.45L397.25 8.45Q401.47 8.45 403.90-1.28L403.90-1.28L403.90-1.28Q404.61-4.16 405.25-7.23Z" fill="url(#editing-gradient-gradient)"></path></g></g><style>text {
  font-size: 64px;
  font-family: Arial Black;
  dominant-baseline: central;
  text-anchor: middle;
}</style></svg>